<svg xmlns="http://www.w3.org/2000/svg" viewBox="0 0 24 24" fill="none">
  <path d="M6.76 10.37c0 .38.03.69.09.93.06.24.15.47.27.7.05.09.07.17.07.24 0 .11-.07.21-.2.32l-.67.44c-.1.07-.19.1-.27.1-.11 0-.21-.05-.32-.15-.13-.13-.24-.27-.33-.42-.09-.15-.18-.32-.28-.52-.71.84-1.6 1.26-2.68 1.26-.77 0-1.38-.22-1.83-.66-.45-.44-.68-1.03-.68-1.77 0-.78.28-1.42.83-1.9.56-.48 1.29-.72 2.21-.72.31 0 .62.02.95.07.33.05.67.12 1.02.2v-.68c0-.71-.15-1.2-.44-1.5-.3-.29-.79-.44-1.49-.44-.32 0-.65.04-.99.11-.34.08-.67.17-.98.28-.15.06-.25.09-.32.11-.07.01-.12.02-.15.02-.13 0-.2-.09-.2-.29v-.46c0-.15.02-.26.06-.33.04-.07.12-.14.24-.2.32-.16.7-.3 1.15-.41.45-.11.93-.17 1.44-.17 1.1 0 1.9.25 2.42.74.51.49.77 1.24.77 2.24v2.95zm-3.7 1.39c.3 0 .61-.05.94-.16.33-.11.62-.31.87-.61.15-.18.26-.38.33-.61.07-.23.11-.51.11-.84v-.4c-.27-.07-.56-.12-.86-.16-.3-.04-.59-.06-.88-.06-.63 0-1.09.12-1.39.37-.3.25-.44.59-.44 1.03 0 .42.11.74.34.97.22.23.54.35.98.35zm7.37 1c-.17 0-.28-.03-.35-.09-.07-.06-.13-.19-.18-.39l-2.04-6.72c-.05-.2-.08-.33-.08-.4 0-.15.08-.24.23-.24h.94c.18 0 .3.03.36.09.07.06.12.19.17.39l1.46 5.76 1.36-5.76c.04-.2.09-.33.16-.39.07-.06.2-.09.37-.09h.77c.18 0 .3.03.37.09.07.06.13.19.16.39l1.38 5.84 1.5-5.84c.05-.2.11-.33.17-.39.07-.06.19-.09.36-.09h.89c.15 0 .24.08.24.24 0 .05-.01.1-.02.16-.01.06-.03.13-.06.24l-2.09 6.72c-.05.2-.11.33-.18.39-.07.06-.19.09-.35.09h-.83c-.18 0-.3-.03-.37-.09-.07-.06-.13-.19-.16-.39l-1.35-5.62-1.34 5.62c-.04.2-.09.33-.16.39-.07.06-.2.09-.37.09h-.83zm11.8.23c-.48 0-.96-.06-1.43-.17-.47-.11-.84-.24-1.1-.39-.15-.09-.26-.19-.29-.28-.04-.09-.06-.19-.06-.29v-.48c0-.2.08-.29.23-.29.06 0 .12.01.18.03.06.02.15.06.27.11.37.16.77.28 1.19.37.42.09.85.13 1.28.13.68 0 1.21-.12 1.58-.35.37-.23.56-.57.56-1.01 0-.3-.1-.55-.29-.76-.19-.21-.55-.4-1.07-.57l-1.53-.48c-.78-.25-1.35-.61-1.72-1.1-.37-.49-.55-1.03-.55-1.62 0-.47.1-.88.3-1.24.2-.36.48-.67.82-.93.34-.26.75-.46 1.22-.6.47-.14.98-.21 1.52-.21.21 0 .42.01.63.03.21.02.41.05.61.08.19.03.38.07.56.11.18.04.34.09.47.14.13.06.23.12.3.19.07.07.12.14.16.22.04.08.06.18.06.3v.44c0 .2-.08.3-.23.3-.09 0-.23-.04-.42-.13-.63-.28-1.34-.42-2.12-.42-.62 0-1.1.1-1.45.31-.35.21-.52.52-.52.94 0 .3.1.56.31.77.21.21.6.42 1.16.61l1.5.48c.77.25 1.33.6 1.68 1.06.35.46.52.98.52 1.56 0 .48-.1.91-.3 1.29-.2.38-.48.71-.84.98-.36.27-.79.48-1.29.63-.51.15-1.07.22-1.68.22z" fill="#FF9900"/>
</svg>
